<?xml version="1.0" encoding="UTF-8"?>
<!DOCTYPE svg PUBLIC "-//W3C//DTD SVG 1.1//EN" "http://www.w3.org/Graphics/SVG/1.1/DTD/svg11.dtd">
<!-- Creator: CorelDRAW (Versión de evaluación) -->
<svg xmlns="http://www.w3.org/2000/svg" xml:space="preserve" width="127mm" height="127mm" version="1.1" style="shape-rendering:geometricPrecision; text-rendering:geometricPrecision; image-rendering:optimizeQuality; fill-rule:evenodd; clip-rule:evenodd"
viewBox="0 0 12700 12700"
 xmlns:xlink="http://www.w3.org/1999/xlink"
 xmlns:xodm="http://www.corel.com/coreldraw/odm/2003">
 <defs>
  <style type="text/css">
   <![CDATA[
    .fil0 {fill:#FEFEFE}
    .fil2 {fill:#96989A}
    .fil1 {fill:#CF035C;fill-rule:nonzero}
   ]]>
  </style>
 </defs>
 <g id="Capa_x0020_1">
  <metadata id="CorelCorpID_0Corel-Layer"/>
  <g id="_2128988838640">
   <rect class="fil0" width="12700" height="12700"/>
   <g>
    <g>
     <path class="fil1" d="M6241.43 8687.76c-116.54,65.2 -241.39,113.76 -375.96,144.28 -133.19,31.91 -277.48,47.17 -431.48,47.17 -421.74,0 -718.63,-99.94 -890.66,-301.05 -172.02,-201.11 -258.06,-566.04 -258.06,-1097.39l0 -1948.11 -640.95 0 1327.37 -1711.89 0 1098.14 1168.92 0 -475.89 613.75 -693.03 0 0 1891.23c0,446.88 -6.16,810.52 619.08,810.52 113.77,0 224.95,-14.62 332.96,-44.38 108.38,-29.86 213.65,-76.3 317.7,-138.75l0 636.48z"/>
     <path class="fil1" d="M8818.88 8687.76c-116.54,65.21 -241.39,113.77 -375.97,144.28 -133.19,31.91 -277.47,47.18 -431.47,47.18 -421.74,0 -718.64,-99.95 -890.66,-301.07 -172.03,-201.11 -258.06,-566.03 -258.06,-1097.37l0 -1948.12 -640.95 0 1327.37 -1711.9 0 1098.15 1173.7 0 0 613.75 -1173.7 0 0 1891.23c0,446.87 -6.16,810.53 619.08,810.53 113.76,0 224.94,-14.62 332.96,-44.39 108.37,-29.86 213.65,-76.31 317.7,-138.75l0 636.48z"/>
    </g>
    <polygon class="fil2" points="3145.6,9370.2 3145.6,3329.79 4318.6,3329.79 4318.6,2763.79 3145.6,2763.79 2579.6,2763.79 2579.6,3329.79 2579.6,9370.2 2579.6,9733.7 2579.6,9936.2 4318.6,9936.2 4318.6,9370.2 "/>
    <polygon class="fil2" points="9554.4,9370.2 9554.4,3329.79 8381.4,3329.79 8381.4,2763.79 9554.4,2763.79 10120.4,2763.79 10120.4,3329.79 10120.4,9370.2 10120.4,9733.7 10120.4,9936.2 8381.4,9936.2 8381.4,9370.2 "/>
   </g>
  </g>
 </g>
</svg>
